<?xml version="1.0" encoding="UTF-8" ?>
<!DOCTYPE svg PUBLIC "-//W3C//DTD SVG 1.1//EN" "http://www.w3.org/Graphics/SVG/1.1/DTD/svg11.dtd">
<svg width="128pt" height="128pt" viewBox="0 0 128 128" version="1.1" xmlns="http://www.w3.org/2000/svg">
    <g id="#5b5b5bc7">
        <path fill="#5b5b5b" opacity="0.78"
              d=" M 62.28 5.87 C 66.79 8.83 71.24 12.19 74.27 16.73 C 75.87 19.14 76.44 22.94 74.06 25.07 C 69.37 29.75 62.42 30.62 57.12 34.36 C 57.63 36.24 58.37 38.04 59.14 39.82 C 53.88 40.58 48.58 40.37 43.30 40.03 C 41.35 36.41 38.60 31.56 41.81 27.82 C 48.18 21.33 59.24 22.44 64.99 15.00 C 67.32 11.72 64.04 8.49 62.28 5.87 Z"/>
    </g>
    <g id="#6e4024fa">
        <path fill="#6e4024" opacity="0.98"
              d=" M 19.36 44.40 C 27.00 41.59 35.17 40.17 43.30 40.03 C 48.58 40.37 53.88 40.58 59.14 39.82 C 66.45 39.42 73.78 40.60 80.93 42.07 C 86.48 43.45 92.54 45.05 96.44 49.54 C 98.89 52.39 98.28 56.35 98.33 59.82 C 103.28 60.12 108.96 58.71 113.32 61.66 C 117.46 66.54 119.69 73.76 117.16 79.92 C 114.01 88.26 106.36 94.00 98.52 97.66 C 98.15 101.50 98.93 105.57 97.29 109.20 C 95.79 112.50 94.76 116.60 91.14 118.22 C 82.49 122.71 72.54 123.14 63.05 124.23 C 50.27 124.83 37.35 124.18 24.87 121.23 C 20.67 120.01 15.87 118.53 13.49 114.56 C 11.91 111.25 10.00 107.85 10.22 104.06 C 10.30 87.38 10.18 70.70 10.27 54.02 C 10.19 48.93 15.25 46.08 19.36 44.40 M 24.41 45.47 C 21.07 46.49 17.64 47.68 14.91 49.93 C 12.78 51.60 12.93 54.54 12.83 56.97 C 12.88 71.98 12.89 87.00 12.82 102.01 C 12.65 106.41 14.31 110.71 16.71 114.33 C 20.33 117.50 25.36 118.19 29.91 119.21 C 45.25 121.90 61.07 121.99 76.45 119.48 C 81.34 118.47 86.59 117.72 90.75 114.75 C 95.30 109.73 95.37 102.59 95.17 96.20 C 101.41 92.38 108.89 89.08 112.11 82.05 C 112.39 81.55 112.94 80.56 113.21 80.07 C 116.45 74.94 114.87 67.36 110.68 63.22 C 105.62 61.86 100.30 62.89 95.14 62.87 C 95.06 59.34 95.37 55.76 94.66 52.28 C 93.90 49.89 91.46 48.67 89.38 47.62 C 82.28 44.38 74.41 43.51 66.75 42.57 C 52.61 41.83 38.19 41.75 24.41 45.47 Z"/>
        <path fill="#6e4024" opacity="0.98"
              d=" M 95.00 78.00 C 97.91 76.70 101.06 76.17 104.23 76.02 C 102.97 80.18 98.73 82.30 95.15 84.19 C 95.09 82.12 95.05 80.06 95.00 78.00 Z"/>
    </g>
    <g id="#e1a544ff">
        <path fill="#e1a544" opacity="1.00"
              d=" M 24.41 45.47 C 38.19 41.75 52.61 41.83 66.75 42.57 C 74.41 43.51 82.28 44.38 89.38 47.62 C 91.46 48.67 93.90 49.89 94.66 52.28 C 95.37 55.76 95.06 59.34 95.14 62.87 C 100.30 62.89 105.62 61.86 110.68 63.22 C 114.87 67.36 116.45 74.94 113.21 80.07 C 113.25 79.55 113.34 78.52 113.39 78.00 C 113.67 74.91 113.63 71.73 112.59 68.76 C 111.73 67.23 110.99 65.53 109.58 64.43 C 104.18 63.25 98.63 64.41 93.22 64.93 C 93.06 60.61 92.96 56.29 92.75 51.97 C 84.88 45.19 73.89 45.19 64.16 43.63 C 58.51 42.36 52.67 42.29 46.98 43.29 C 36.93 44.84 26.10 44.82 17.08 50.09 C 14.46 51.34 14.69 54.52 14.61 56.95 C 14.69 71.98 14.70 87.00 14.61 102.02 C 14.71 104.76 14.40 108.24 17.11 109.89 C 25.00 115.11 34.78 116.19 43.97 117.17 C 58.37 117.87 73.45 117.82 86.92 112.07 C 89.12 110.77 92.14 109.56 92.66 106.76 C 93.64 96.61 92.43 86.39 93.18 76.23 C 96.87 75.34 100.64 74.71 104.43 74.49 C 105.08 75.32 105.73 76.16 106.38 76.99 C 104.75 79.28 103.04 81.51 101.36 83.77 C 102.50 83.91 103.64 84.05 104.79 84.20 C 102.44 86.49 100.05 88.76 97.83 91.18 C 102.99 88.79 107.37 85.12 112.11 82.05 C 108.89 89.08 101.41 92.38 95.17 96.20 C 95.37 102.59 95.30 109.73 90.75 114.75 C 86.59 117.72 81.34 118.47 76.45 119.48 C 61.07 121.99 45.25 121.90 29.91 119.21 C 25.36 118.19 20.33 117.50 16.71 114.33 C 14.31 110.71 12.65 106.41 12.82 102.01 C 12.89 87.00 12.88 71.98 12.83 56.97 C 12.93 54.54 12.78 51.60 14.91 49.93 C 17.64 47.68 21.07 46.49 24.41 45.47 M 95.00 78.00 C 95.05 80.06 95.09 82.12 95.15 84.19 C 98.73 82.30 102.97 80.18 104.23 76.02 C 101.06 76.17 97.91 76.70 95.00 78.00 Z"/>
        <path fill="#e1a544" opacity="1.00"
              d=" M 23.07 51.14 C 27.80 47.95 33.71 47.39 39.21 46.53 C 38.24 47.99 37.20 49.42 36.13 50.82 C 41.80 50.71 47.46 50.46 53.12 50.05 C 55.03 49.96 56.94 49.91 58.86 49.86 C 60.67 50.13 62.46 50.48 64.26 50.78 C 61.76 51.09 59.28 51.52 56.77 51.79 C 49.97 51.87 43.19 52.28 36.41 52.69 C 31.45 52.04 26.55 53.38 22.34 55.99 C 21.53 54.40 21.18 52.15 23.07 51.14 Z"/>
        <path fill="#e1a544" opacity="1.00"
              d=" M 26.86 56.61 C 28.40 55.74 29.97 54.90 31.61 54.25 C 35.65 55.70 39.91 56.40 44.19 56.47 C 38.51 57.80 32.53 58.39 26.86 56.61 Z"/>
    </g>
    <g id="#a2916fff">
        <path fill="#a2916f" opacity="1.00"
              d=" M 46.98 43.29 C 52.67 42.29 58.51 42.36 64.16 43.63 C 64.46 44.28 65.06 45.58 65.37 46.23 C 63.25 47.52 61.10 48.79 58.86 49.86 C 56.94 49.91 55.03 49.96 53.12 50.05 C 52.14 48.60 51.18 47.13 50.12 45.74 C 49.11 44.88 48.05 44.08 46.98 43.29 Z"/>
    </g>
    <g id="#fffee9ff">
        <path fill="#fffee9" opacity="1.00"
              d=" M 17.08 50.09 C 26.10 44.82 36.93 44.84 46.98 43.29 C 48.05 44.08 49.11 44.88 50.12 45.74 C 46.47 45.82 42.83 46.02 39.21 46.53 C 33.71 47.39 27.80 47.95 23.07 51.14 C 21.18 52.15 21.53 54.40 22.34 55.99 C 27.56 59.64 34.00 60.71 40.20 61.39 C 38.99 61.80 37.78 62.22 36.59 62.66 C 45.97 63.90 55.47 63.25 64.91 63.40 C 73.83 63.54 82.60 61.39 90.82 58.04 C 89.46 59.34 87.83 60.48 86.95 62.19 C 86.32 65.42 86.61 68.73 86.60 72.00 C 86.84 85.35 86.29 98.72 86.92 112.07 C 73.45 117.82 58.37 117.87 43.97 117.17 C 34.78 116.19 25.00 115.11 17.11 109.89 C 14.40 108.24 14.71 104.76 14.61 102.02 C 14.70 87.00 14.69 71.98 14.61 56.95 C 14.69 54.52 14.46 51.34 17.08 50.09 Z"/>
        <path fill="#fffee9" opacity="1.00"
              d=" M 64.16 43.63 C 73.89 45.19 84.88 45.19 92.75 51.97 C 91.35 55.41 88.17 57.28 84.55 57.43 C 85.16 56.03 86.24 54.71 86.26 53.12 C 85.57 51.37 83.75 50.51 82.14 49.78 C 76.81 47.62 71.06 46.77 65.37 46.23 C 65.06 45.58 64.46 44.28 64.16 43.63 Z"/>
        <path fill="#fffee9" opacity="1.00"
              d=" M 93.22 64.93 C 98.63 64.41 104.18 63.25 109.58 64.43 C 110.99 65.53 111.73 67.23 112.59 68.76 C 111.42 71.08 110.29 73.42 109.14 75.76 C 108.30 74.59 107.46 73.43 106.62 72.27 C 102.59 72.09 98.56 71.80 94.54 71.49 C 94.04 69.32 93.53 67.14 93.22 64.93 Z"/>
    </g>
    <g id="#eab662ff">
        <path fill="#eab662" opacity="1.00"
              d=" M 39.21 46.53 C 42.83 46.02 46.47 45.82 50.12 45.74 C 51.18 47.13 52.14 48.60 53.12 50.05 C 47.46 50.46 41.80 50.71 36.13 50.82 C 37.20 49.42 38.24 47.99 39.21 46.53 Z"/>
        <path fill="#eab662" opacity="1.00"
              d=" M 36.41 52.69 C 43.19 52.28 49.97 51.87 56.77 51.79 C 61.60 51.93 66.44 52.29 71.16 53.34 C 68.02 54.94 64.54 55.72 61.02 55.77 C 55.40 55.72 49.77 55.67 44.19 56.47 C 39.91 56.40 35.65 55.70 31.61 54.25 C 33.19 53.68 34.79 53.16 36.41 52.69 Z"/>
    </g>
    <g id="#f8d58bff">
        <path fill="#f8d58b" opacity="1.00"
              d=" M 65.37 46.23 C 71.06 46.77 76.81 47.62 82.14 49.78 C 83.75 50.51 85.57 51.37 86.26 53.12 C 86.24 54.71 85.16 56.03 84.55 57.43 C 83.72 56.26 83.10 54.77 81.59 54.35 C 76.08 52.13 70.11 51.48 64.26 50.78 C 62.46 50.48 60.67 50.13 58.86 49.86 C 61.10 48.79 63.25 47.52 65.37 46.23 Z"/>
        <path fill="#f8d58b" opacity="1.00"
              d=" M 106.38 76.99 C 108.72 77.30 111.05 77.64 113.39 78.00 C 113.34 78.52 113.25 79.55 113.21 80.07 C 112.94 80.56 112.39 81.55 112.11 82.05 C 107.37 85.12 102.99 88.79 97.83 91.18 C 100.05 88.76 102.44 86.49 104.79 84.20 C 103.64 84.05 102.50 83.91 101.36 83.77 C 103.04 81.51 104.75 79.28 106.38 76.99 Z"/>
    </g>
    <g id="#cf0300ff">
        <path fill="#cf0300" opacity="1.00"
              d=" M 56.77 51.79 C 59.28 51.52 61.76 51.09 64.26 50.78 C 70.11 51.48 76.08 52.13 81.59 54.35 C 83.10 54.77 83.72 56.26 84.55 57.43 C 78.46 58.83 72.51 60.94 66.23 61.38 C 63.51 61.41 60.80 61.29 58.09 61.09 C 59.05 59.31 60.04 57.54 61.02 55.77 C 64.54 55.72 68.02 54.94 71.16 53.34 C 66.44 52.29 61.60 51.93 56.77 51.79 Z"/>
    </g>
    <g id="#e87501ff">
        <path fill="#e87501" opacity="1.00"
              d=" M 22.34 55.99 C 26.55 53.38 31.45 52.04 36.41 52.69 C 34.79 53.16 33.19 53.68 31.61 54.25 C 29.97 54.90 28.40 55.74 26.86 56.61 C 32.53 58.39 38.51 57.80 44.19 56.47 C 49.77 55.67 55.40 55.72 61.02 55.77 C 60.04 57.54 59.05 59.31 58.09 61.09 C 60.80 61.29 63.51 61.41 66.23 61.38 C 57.59 62.78 48.86 62.22 40.20 61.39 C 34.00 60.71 27.56 59.64 22.34 55.99 Z"/>
    </g>
    <g id="#eae0bfff">
        <path fill="#eae0bf" opacity="1.00"
              d=" M 92.75 51.97 C 92.96 56.29 93.06 60.61 93.22 64.93 C 93.53 67.14 94.04 69.32 94.54 71.49 C 98.56 71.80 102.59 72.09 106.62 72.27 C 107.46 73.43 108.30 74.59 109.14 75.76 C 110.29 73.42 111.42 71.08 112.59 68.76 C 113.63 71.73 113.67 74.91 113.39 78.00 C 111.05 77.64 108.72 77.30 106.38 76.99 C 105.73 76.16 105.08 75.32 104.43 74.49 C 100.64 74.71 96.87 75.34 93.18 76.23 C 92.43 86.39 93.64 96.61 92.66 106.76 C 92.14 109.56 89.12 110.77 86.92 112.07 C 86.29 98.72 86.84 85.35 86.60 72.00 C 86.61 68.73 86.32 65.42 86.95 62.19 C 87.83 60.48 89.46 59.34 90.82 58.04 C 82.60 61.39 73.83 63.54 64.91 63.40 C 55.47 63.25 45.97 63.90 36.59 62.66 C 37.78 62.22 38.99 61.80 40.20 61.39 C 48.86 62.22 57.59 62.78 66.23 61.38 C 72.51 60.94 78.46 58.83 84.55 57.43 C 88.17 57.28 91.35 55.41 92.75 51.97 Z"/>
    </g>
</svg>